# xmcd
#
# Track frame offsets: 
#        150
#        17195
#        34917
#        48442
#        65705
#        80985
#        97577
#        113315
#        132747
#        149290
#        169492
#        184857
#
# Disc length: 2739 seconds
#
# Revision: 2
# Processed by: cddbd v1.5.2PL0 Copyright (c) Steve Scherf et al.
# Submitted via: ExactAudioCopy v1.0b6
#
DISCID=ab0ab10c
DTITLE=鄧麗君 - 島國情歌第1輯
DYEAR=1977
DGENRE=Pop
TTITLE0=情人的關懷
TTITLE1=請你別再找我
TTITLE2=不論今宵或明天
TTITLE3=相聚更甜蜜
TTITLE4=雨下的花朵
TTITLE5=冬之戀情
TTITLE6=再見，我的愛人
TTITLE7=誰來愛我
TTITLE8=再來一杯
TTITLE9=夜霧下的姑娘
TTITLE10=逃避行
TTITLE11=愛的理想
EXTD=
EXTT0=
EXTT1=
EXTT2=
EXTT3=
EXTT4=
EXTT5=
EXTT6=
EXTT7=
EXTT8=
EXTT9=
EXTT10=
EXTT11=
PLAYORDER=
